<svg width="23" height="23" viewBox="0 0 23 23" fill="none" xmlns="http://www.w3.org/2000/svg">
<path d="M18.4959 7.58998V12.5254C18.4959 15.4771 16.8093 16.7421 14.2793 16.7421H5.85545C5.4242 16.7421 5.01213 16.7037 4.62879 16.6175C4.38921 16.5792 4.15921 16.5121 3.94838 16.4354C2.51088 15.8987 1.63879 14.6529 1.63879 12.5254V7.58998C1.63879 4.63831 3.32545 3.37335 5.85545 3.37335H14.2793C16.4259 3.37335 17.9688 4.28376 18.3809 6.36334C18.448 6.74668 18.4959 7.13956 18.4959 7.58998Z" stroke="white" stroke-width="2" stroke-miterlimit="10" stroke-linecap="round" stroke-linejoin="round"/>
<path d="M21.372 10.4651V15.4005C21.372 18.3522 19.6853 19.6172 17.1553 19.6172H8.73155C8.02238 19.6172 7.38031 19.5213 6.82448 19.3105C5.68406 18.8888 4.9078 18.0168 4.62988 16.6176C5.01322 16.7038 5.4253 16.7422 5.85655 16.7422H14.2803C16.8103 16.7422 18.497 15.4772 18.497 12.5255V7.59009C18.497 7.13968 18.4587 6.73721 18.382 6.36346C20.2028 6.7468 21.372 8.03094 21.372 10.4651Z" stroke="white" stroke-width="2" stroke-miterlimit="10" stroke-linecap="round" stroke-linejoin="round"/>
<path d="M10.0609 12.5924C11.4581 12.5924 12.5909 11.4597 12.5909 10.0624C12.5909 8.6651 11.4581 7.53236 10.0609 7.53236C8.66362 7.53236 7.53088 8.6651 7.53088 10.0624C7.53088 11.4597 8.66362 12.5924 10.0609 12.5924Z" stroke="white" stroke-width="2" stroke-miterlimit="10" stroke-linecap="round" stroke-linejoin="round"/>
<path d="M4.58075 7.95421V12.1709" stroke="white" stroke-width="2" stroke-miterlimit="10" stroke-linecap="round" stroke-linejoin="round"/>
<path d="M15.5459 7.95445V12.1711" stroke="white" stroke-width="2" stroke-miterlimit="10" stroke-linecap="round" stroke-linejoin="round"/>
</svg>
